# xmcd
#
# Track frame offsets:
#	150
#	16560
#	34990
#	56690
#	76318
#	92998
#	109716
#	125948
#	147332
#	166860
#	185441
#	201546
#	217008
#	231758
#	247857
#	265104
#	280478
#	303121
#	319450
#	335529
#
# Disc length: 4775 seconds
#
# Revision: 1
# Processed by: cddbd v1.5.2PL0 Copyright (c) Steve Scherf et al.
# Submitted via: EasyCDDAExtractor 8.2.3.1
#
DISCID=2812a514
DTITLE=Various Artist - Akella Presents - Blues-Rock - vol.23  CD2
DYEAR=2010
DGENRE=Blues
TTITLE0=BACHMAN and TURNER - Rollin' Along
TTITLE1=VDELLI - Loose endz
TTITLE2=BONAFIDE - Loud Band
TTITLE3=ROB TOGNONI - Dirty Occupation
TTITLE4=STAMPEDE QUEEN - Kari Baby
TTITLE5=TIM WHEELER and THE SOUND SHUFFLERS - Stratisfier
TTITLE6=AIRBOURNE - What's Eatin' You
TTITLE7=JAY JESSE JOHNSON - I've Got An Ax To Grind
TTITLE8=LARRY MILLER - Missy Mango
TTITLE9=The HAMSTERS - Rocket in My Pocket
TTITLE10=BUDDAHEADS - Howlin' at the Moon
TTITLE11=CRY OF LOVE - Gotta Love Me
TTITLE12=GENOCIDE - Stranded
TTITLE13=DAVE EVANS - Only The Good Die Young
TTITLE14=SWAMPdaWAMP - Shame
TTITLE15=GLENN HUGHES - I Just Want To Celebrate
TTITLE16=ERIC SARDINAS and BIG MOTOR - Just Like That
TTITLE17=ROB ORLEMANS - 7000 Miles
TTITLE18=SIDEBURN - The Taker
TTITLE19=STEVE FISTER - Deeper than the blues
EXTD=
EXTT0=
EXTT1=
EXTT2=
EXTT3=
EXTT4=
EXTT5=
EXTT6=
EXTT7=
EXTT8=
EXTT9=
EXTT10=
EXTT11=
EXTT12=
EXTT13=
EXTT14=
EXTT15=
EXTT16=
EXTT17=
EXTT18=
EXTT19=
PLAYORDER=
